<svg width="17" height="21" viewBox="0 0 17 21" fill="none" xmlns="http://www.w3.org/2000/svg">
<path d="M14.9748 7.67433L14.981 8.17429L14.981 8.17429L14.9748 7.67433ZM12.9249 7.669L12.9219 8.169H12.9249V7.669ZM13.9156 7.67463L13.9202 7.17466L13.9202 7.17466L13.9156 7.67463ZM13.0421 6.28083L13.0475 5.78083H13.0421V6.28083ZM15.2156 6.28748L15.2143 5.78748L15.2136 5.78748L15.2156 6.28748ZM11.9981 1.54318L11.6235 1.87436L11.6235 1.87442L11.9981 1.54318ZM13.7669 3.54357L13.3923 3.87476L13.3923 3.87476L13.7669 3.54357ZM15.5153 5.52082L15.1407 5.85207L15.1411 5.85245L15.5153 5.52082ZM10.5398 14.1696H5.78736V15.1696H10.5398V14.1696ZM10.6951 13.9577C10.6951 14.0248 10.6694 14.0824 10.6338 14.121C10.5986 14.1593 10.5639 14.1696 10.5398 14.1696V15.1696C11.2125 15.1696 11.6951 14.5831 11.6951 13.9577H10.6951ZM10.5398 13.7552C10.592 13.7552 10.6951 13.8137 10.6951 13.9577H11.6951C11.6951 13.3232 11.2041 12.7552 10.5398 12.7552V13.7552ZM5.78736 13.7552H10.5398V12.7552H5.78736V13.7552ZM5.63215 13.9577C5.63215 13.8137 5.73525 13.7552 5.78736 13.7552V12.7552C5.12311 12.7552 4.63215 13.3232 4.63215 13.9577H5.63215ZM5.78736 14.1696C5.76335 14.1696 5.72857 14.1593 5.69336 14.121C5.65784 14.0824 5.63215 14.0248 5.63215 13.9577H4.63215C4.63215 14.5831 5.11473 15.1696 5.78736 15.1696V14.1696ZM5.78736 9.00484H8.74019V8.00484H5.78736V9.00484ZM5.63215 9.21683C5.63215 9.14973 5.65784 9.09205 5.69336 9.05346C5.72857 9.01519 5.76335 9.00484 5.78736 9.00484V8.00484C5.11473 8.00484 4.63215 8.5914 4.63215 9.21683H5.63215ZM5.78736 9.41932C5.73525 9.41932 5.63215 9.36081 5.63215 9.21683H4.63215C4.63215 9.85128 5.12311 10.4193 5.78736 10.4193V9.41932ZM8.74019 9.41932H5.78736V10.4193H8.74019V9.41932ZM8.8954 9.21683C8.8954 9.36081 8.7923 9.41932 8.74019 9.41932V10.4193C9.40444 10.4193 9.8954 9.85128 9.8954 9.21683H8.8954ZM8.74019 9.00484C8.7642 9.00484 8.79898 9.01519 8.8342 9.05346C8.86971 9.09205 8.8954 9.14973 8.8954 9.21683H9.8954C9.8954 8.5914 9.41282 8.00484 8.74019 8.00484V9.00484ZM15.6069 7.169C15.4 7.169 15.1732 7.17183 14.9686 7.17437L14.981 8.17429C15.187 8.17173 15.4074 8.169 15.6069 8.169V7.169ZM16.5 8.0965C16.5 7.62314 16.14 7.169 15.6069 7.169V8.169C15.5654 8.169 15.5334 8.1497 15.5173 8.13214C15.502 8.11549 15.5 8.101 15.5 8.0965H16.5ZM16.5 15.7345V8.0965H15.5V15.7345H16.5ZM12.0775 20.5C14.5588 20.5 16.5 18.3264 16.5 15.7345H15.5C15.5 17.8546 13.9293 19.5 12.0775 19.5V20.5ZM5.12347 20.5H12.0775V19.5H5.12347V20.5ZM0.5 15.5255C0.5 18.2328 2.53861 20.5 5.12347 20.5V19.5C3.16552 19.5 1.5 17.7582 1.5 15.5255H0.5ZM0.5 5.2845V15.5255H1.5V5.2845H0.5ZM4.94001 0.5C2.44925 0.5 0.5 2.69339 0.5 5.2845H1.5C1.5 3.16361 3.08017 1.5 4.94001 1.5V0.5ZM9.60512 0.5H4.94001V1.5H9.60512V0.5ZM10.507 1.437C10.507 0.971011 10.1538 0.5 9.60512 0.5V1.5C9.5654 1.5 9.53493 1.48086 9.52067 1.46512C9.50816 1.45131 9.50699 1.4404 9.50699 1.437H10.507ZM10.507 4.496V1.437H9.50699V4.496H10.507ZM12.9278 7.16901C11.639 7.16135 10.507 5.99578 10.507 4.496H9.50699C9.50699 6.47322 11.0133 8.15765 12.9219 8.16899L12.9278 7.16901ZM13.9202 7.17466C13.6322 7.17203 13.3009 7.169 12.9249 7.169V8.169C13.2957 8.169 13.6229 8.17198 13.911 8.17461L13.9202 7.17466ZM14.5149 7.1785C14.3418 7.1785 14.145 7.17671 13.9202 7.17466L13.911 8.17461C14.1345 8.17665 14.3363 8.1785 14.5149 8.1785V7.1785ZM14.9686 7.17437C14.793 7.17655 14.6354 7.1785 14.5149 7.1785V8.1785C14.643 8.1785 14.8078 8.17644 14.981 8.17429L14.9686 7.17437ZM13.0366 6.7808C13.6482 6.78747 14.4972 6.79033 15.2176 6.78747L15.2136 5.78748C14.4978 5.79032 13.6537 5.78748 13.0475 5.78085L13.0366 6.7808ZM10.78 4.36468C10.78 5.65124 11.7611 6.78083 13.0421 6.78083V5.78083C12.3906 5.78083 11.78 5.17951 11.78 4.36468H10.78ZM10.78 1.86048V4.36468H11.78V1.86048H10.78ZM12.3727 1.21199C12.0894 0.891585 11.673 0.832174 11.3385 0.980347C11.0112 1.12539 10.78 1.45755 10.78 1.86048H11.78C11.78 1.85337 11.7813 1.85898 11.7744 1.86952C11.7686 1.87842 11.7588 1.88792 11.7436 1.89463C11.7283 1.90142 11.7047 1.90631 11.6766 1.90061C11.6455 1.89433 11.6275 1.87894 11.6235 1.87436L12.3727 1.21199ZM14.1415 3.21238C13.4949 2.48107 12.8453 1.74642 12.3726 1.21193L11.6235 1.87442C12.0962 2.40885 12.7457 3.14344 13.3923 3.87476L14.1415 3.21238ZM15.8898 5.18958C15.429 4.66861 14.7867 3.94216 14.1415 3.21238L13.3923 3.87476C14.0376 4.60453 14.6799 5.33104 15.1407 5.85207L15.8898 5.18958ZM15.2169 6.78747C15.6435 6.78637 15.9436 6.50345 16.0647 6.19382C16.1853 5.88545 16.1565 5.49048 15.8895 5.1892L15.1411 5.85245C15.1373 5.84824 15.134 5.84101 15.1332 5.83498C15.1326 5.83118 15.1332 5.8301 15.1334 5.82966C15.1335 5.82941 15.1369 5.82032 15.1516 5.80919C15.1593 5.80334 15.1694 5.79755 15.1817 5.79335C15.1941 5.78906 15.2056 5.7875 15.2143 5.78748L15.2169 6.78747Z" fill="#F1861D"/>
</svg>
