<svg width="19" height="18" viewBox="0 0 19 18" fill="none" xmlns="http://www.w3.org/2000/svg">
<path d="M12.2143 16.2857H17.6429V10.8571H12.2143V16.2857ZM11.3095 10.8552C11.3095 10.3569 11.7152 9.95238 12.2123 9.95238H17.6448C18.1431 9.95238 18.5476 10.3581 18.5476 10.8552V16.2877C18.5476 16.7859 18.1419 17.1905 17.6448 17.1905H12.2123C11.7141 17.1905 11.3095 16.7848 11.3095 16.2877V10.8552ZM1.22917 16.2857H7.36607L4.29762 10.87L1.22917 16.2857ZM4.69114 9.72935L8.53578 16.5151C8.70665 16.8166 8.48884 17.1905 8.14226 17.1905H0.452974C0.106401 17.1905 -0.111411 16.8166 0.0594536 16.5151L3.9041 9.72935C4.07736 9.42355 4.51788 9.42355 4.69114 9.72935ZM14.9286 8.14286C12.68 8.14286 10.8571 6.32002 10.8571 4.07143C10.8571 1.82284 12.68 0 14.9286 0C17.1772 0 19 1.82284 19 4.07143C19 6.32002 17.1772 8.14286 14.9286 8.14286ZM14.9286 7.23809C16.6775 7.23809 18.0952 5.82033 18.0952 4.07143C18.0952 2.32253 16.6775 0.904762 14.9286 0.904762C13.1797 0.904762 11.7619 2.32253 11.7619 4.07143C11.7619 5.82033 13.1797 7.23809 14.9286 7.23809ZM1.03353 1.20288L6.93998 7.10933C7.11167 7.28102 7.39003 7.28102 7.56171 7.10933C7.7334 6.93764 7.7334 6.65928 7.56171 6.4876L1.65526 0.581146C1.48357 0.409459 1.20521 0.409459 1.03353 0.581146C0.86184 0.752832 0.86184 1.03119 1.03353 1.20288Z" fill="#F1861D"/>
<path d="M1.65528 7.1091L7.56174 1.20265C7.73342 1.03096 7.73342 0.7526 7.56174 0.580913C7.39005 0.409227 7.11169 0.409227 6.94 0.580913L1.03355 6.48737C0.861864 6.65905 0.861864 6.93741 1.03355 7.1091C1.20524 7.28079 1.4836 7.28079 1.65528 7.1091Z" fill="#F1861D"/>
</svg>
