<svg width="73" height="75" viewBox="0 0 73 75" fill="none" xmlns="http://www.w3.org/2000/svg">
<g filter="url(#filter0_d_44_182)">
<path fill-rule="evenodd" clip-rule="evenodd" d="M27.1492 49.7144H43.532C44.7668 49.7144 45.7907 48.6906 45.7907 47.456C45.7907 46.2213 44.7668 45.2276 43.532 45.2276H27.1492C25.9144 45.2276 24.8905 46.2213 24.8905 47.456C24.8905 48.6906 25.9144 49.7144 27.1492 49.7144ZM37.3282 30.1714H27.1492C25.9144 30.1714 24.8905 31.1952 24.8905 32.4298C24.8905 33.6644 25.9144 34.6581 27.1492 34.6581H37.3282C38.563 34.6581 39.5869 33.6644 39.5869 32.4298C39.5869 31.1952 38.563 30.1714 37.3282 30.1714ZM58.82 27.5384C59.5279 27.5303 60.2987 27.5215 60.999 27.5215C61.7519 27.5215 62.3542 28.1237 62.3542 28.8765V53.087C62.3542 60.5549 56.301 66.6075 48.8323 66.6075H24.8604C17.0304 66.6075 10.6459 60.2538 10.6459 52.4245V19.9632C10.6459 12.4953 16.7292 6.38251 24.228 6.38251H40.3097C41.0927 6.38251 41.695 7.01487 41.695 7.76768V17.4639C41.695 22.9745 46.2424 27.4914 51.7535 27.5215C53.0408 27.5215 54.1757 27.531 55.1689 27.5393C55.9415 27.5458 56.6284 27.5516 57.2346 27.5516C57.6633 27.5516 58.219 27.5452 58.82 27.5384ZM59.6504 23.1431C57.1749 23.1522 54.2567 23.1431 52.1577 23.122C48.8269 23.122 46.0834 20.3788 46.0834 17.0484V9.1107C46.0834 7.81285 47.6584 7.16844 48.5589 8.10494C50.1881 9.79883 52.4268 12.127 54.6555 14.4448C56.8801 16.7583 59.0948 19.0614 60.6834 20.713C61.5628 21.6255 60.9183 23.1401 59.6504 23.1431Z" fill="white"/>
</g>
<defs>
<filter id="filter0_d_44_182" x="-4" y="0.359985" width="81" height="80.27" filterUnits="userSpaceOnUse" color-interpolation-filters="sRGB">
<feFlood flood-opacity="0" result="BackgroundImageFix"/>
<feColorMatrix in="SourceAlpha" type="matrix" values="0 0 0 0 0 0 0 0 0 0 0 0 0 0 0 0 0 0 127 0" result="hardAlpha"/>
<feOffset dy="4"/>
<feGaussianBlur stdDeviation="2"/>
<feComposite in2="hardAlpha" operator="out"/>
<feColorMatrix type="matrix" values="0 0 0 0 0 0 0 0 0 0 0 0 0 0 0 0 0 0 0.25 0"/>
<feBlend mode="normal" in2="BackgroundImageFix" result="effect1_dropShadow_44_182"/>
<feBlend mode="normal" in="SourceGraphic" in2="effect1_dropShadow_44_182" result="shape"/>
</filter>
</defs>
</svg>
