<svg width="25" height="25" viewBox="0 0 25 25" fill="none" xmlns="http://www.w3.org/2000/svg">
<path d="M17.1875 10.9375C16.0893 10.9378 15.0109 11.2297 14.0625 11.7832V7.03125C14.0625 5.58085 13.4863 4.18985 12.4607 3.16426C11.4352 2.13867 10.0442 1.5625 8.59375 1.5625C7.14335 1.5625 5.75235 2.13867 4.72676 3.16426C3.70117 4.18985 3.125 5.58085 3.125 7.03125V17.9688C3.12484 19.0832 3.46525 20.1712 4.10063 21.0868C4.73601 22.0025 5.63601 22.7021 6.68008 23.092C7.72415 23.4819 8.86243 23.5434 9.94246 23.2683C11.0225 22.9933 11.9927 22.3948 12.723 21.553C13.4435 22.2898 14.335 22.8369 15.3182 23.1457C16.3013 23.4544 17.3456 23.5152 18.3579 23.3225C19.3702 23.1299 20.3192 22.6898 21.1202 22.0416C21.9213 21.3933 22.5495 20.557 22.949 19.6071C23.3485 18.6572 23.5068 17.6232 23.4099 16.5973C23.3129 15.5714 22.9637 14.5854 22.3934 13.7271C21.823 12.8689 21.0492 12.165 20.1409 11.6783C19.2326 11.1916 18.218 10.9371 17.1875 10.9375ZM17.1875 12.5C18.2942 12.5018 19.3647 12.8949 20.2096 13.6097C21.0545 14.3246 21.6195 15.3151 21.8047 16.4063H12.5703C12.7555 15.3151 13.3205 14.3246 14.1654 13.6097C15.0103 12.8949 16.0808 12.5018 17.1875 12.5ZM4.6875 7.03125C4.6875 5.99525 5.09905 5.00168 5.83161 4.26911C6.56418 3.53655 7.55775 3.125 8.59375 3.125C9.62975 3.125 10.6233 3.53655 11.3559 4.26911C12.0885 5.00168 12.5 5.99525 12.5 7.03125V11.7188H4.6875V7.03125ZM8.59375 21.875C7.55812 21.8738 6.56526 21.4618 5.83296 20.7295C5.10066 19.9972 4.68872 19.0044 4.6875 17.9688V13.2813H12.3164C11.5322 14.2529 11.0588 15.4383 10.9578 16.6829C10.8569 17.9275 11.1332 19.1736 11.7506 20.259C11.3898 20.7588 10.9154 21.166 10.3667 21.4469C9.81787 21.7278 9.21026 21.8745 8.59375 21.875ZM17.1875 21.875C16.0808 21.8732 15.0103 21.4801 14.1654 20.7653C13.3205 20.0504 12.7555 19.0599 12.5703 17.9688H21.8047C21.6195 19.0599 21.0545 20.0504 20.2096 20.7653C19.3647 21.4801 18.2942 21.8732 17.1875 21.875Z" fill="#F1861D"/>
</svg>
