<svg width="20" height="20" viewBox="0 0 20 20" fill="none" xmlns="http://www.w3.org/2000/svg">
<g id="Iconly/Bold/Call">
<path id="Paper" fill-rule="evenodd" clip-rule="evenodd" d="M7.61716 13.5244H11.2079C11.4785 13.5244 11.703 13.2523 11.703 12.9241C11.703 12.596 11.4785 12.3319 11.2079 12.3319H7.61716C7.34653 12.3319 7.12211 12.596 7.12211 12.9241C7.12211 13.2523 7.34653 13.5244 7.61716 13.5244ZM9.84818 8.32728H7.61716C7.34653 8.32728 7.12211 8.5994 7.12211 8.92754C7.12211 9.25568 7.34653 9.5198 7.61716 9.5198H9.84818C10.1188 9.5198 10.3432 9.25568 10.3432 8.92754C10.3432 8.5994 10.1188 8.32728 9.84818 8.32728ZM14.5587 7.62697C14.7139 7.62481 14.8828 7.62247 15.0363 7.62247C15.2013 7.62247 15.3333 7.78266 15.3333 7.98289V14.4223C15.3333 16.4086 14.0066 18.0184 12.3696 18.0184H7.11551C5.39934 18.0184 4 16.3285 4 14.2461V5.61216C4 3.62587 5.33333 2 6.9769 2H10.5016C10.6733 2 10.8053 2.16819 10.8053 2.36842V4.94739C10.8053 6.41308 11.802 7.61446 13.0099 7.62247C13.292 7.62247 13.5408 7.62501 13.7585 7.62722C13.9278 7.62895 14.0784 7.63048 14.2112 7.63048C14.3052 7.63048 14.427 7.62879 14.5587 7.62697ZM14.7407 6.45793C14.1982 6.46033 13.5585 6.45793 13.0985 6.45232C12.3684 6.45232 11.7671 5.72269 11.7671 4.83687V2.72564C11.7671 2.38044 12.1123 2.20904 12.3097 2.45813C12.6668 2.90871 13.1576 3.52803 13.6461 4.14456C14.1336 4.75983 14.619 5.37233 14.9671 5.81159C15.1599 6.05427 15.0186 6.45713 14.7407 6.45793Z" fill="#F1861D"/>
</g>
</svg>
