<svg width="26" height="20" viewBox="0 0 26 20" fill="none" xmlns="http://www.w3.org/2000/svg">
<path d="M0.364258 8.75V19.375C0.364258 19.7203 0.643945 20 0.989258 20H4.11426V7.5H1.61426C0.924023 7.5 0.364258 8.05977 0.364258 8.75ZM14.4268 6.875H13.4893V5.3125C13.4893 5.13985 13.3494 5 13.1768 5H12.5518C12.3791 5 12.2393 5.13985 12.2393 5.3125V7.8125C12.2393 7.98516 12.3791 8.125 12.5518 8.125H14.4268C14.5994 8.125 14.7393 7.98516 14.7393 7.8125V7.1875C14.7393 7.01485 14.5994 6.875 14.4268 6.875ZM19.8076 4.37657L13.5576 0.209769C13.3522 0.0729845 13.111 0 12.8643 0C12.6175 0 12.3763 0.0729845 12.1709 0.209769L5.9209 4.37657C5.74971 4.4907 5.60933 4.64532 5.51223 4.82671C5.41513 5.00811 5.3643 5.21066 5.36426 5.41641V20H10.3643V14.375C10.3643 14.0297 10.6439 13.75 10.9893 13.75H14.7393C15.0846 13.75 15.3643 14.0297 15.3643 14.375V20H20.3643V5.4168C20.3643 4.99883 20.1553 4.60821 19.8076 4.37657ZM12.8643 10C11.1385 10 9.73926 8.60079 9.73926 6.875C9.73926 5.14922 11.1385 3.75 12.8643 3.75C14.59 3.75 15.9893 5.14922 15.9893 6.875C15.9893 8.60079 14.59 10 12.8643 10ZM24.1143 7.5H21.6143V20H24.7393C25.0846 20 25.3643 19.7203 25.3643 19.375V8.75C25.3643 8.05977 24.8045 7.5 24.1143 7.5Z" fill="#E6801D"/>
</svg>
