<svg width="27" height="27" viewBox="0 0 27 27" fill="none" xmlns="http://www.w3.org/2000/svg">
<path fill-rule="evenodd" clip-rule="evenodd" d="M17.831 2.81317C18.5409 2.81317 19.2496 2.91329 19.9235 3.13942C24.0759 4.48942 25.5721 9.04567 24.3223 13.0282C23.6135 15.0633 22.4548 16.9207 20.9372 18.4383C18.7648 20.542 16.3809 22.4095 13.8148 24.0183L13.5335 24.1882L13.241 24.007C10.6659 22.4095 8.26852 20.542 6.0759 18.427C4.5684 16.9094 3.40852 15.0633 2.68852 13.0282C1.41727 9.04567 2.91352 4.48942 7.1109 3.11579C7.43715 3.00329 7.77352 2.92454 8.11102 2.88067H8.24602C8.56215 2.83454 8.87602 2.81317 9.19102 2.81317H9.31477C10.0235 2.83454 10.7098 2.95829 11.3746 3.18442H11.441C11.486 3.20579 11.5198 3.22942 11.5423 3.25079C11.7909 3.33067 12.026 3.42067 12.251 3.54442L12.6785 3.73567C12.7818 3.79076 12.8978 3.87494 12.998 3.9477C13.0615 3.99379 13.1186 4.0353 13.1623 4.06192C13.1806 4.07275 13.1993 4.08365 13.2181 4.09463C13.3146 4.15093 13.4151 4.20959 13.4998 4.27454C14.7496 3.31942 16.2673 2.80192 17.831 2.81317ZM20.8235 10.9132C21.2848 10.9008 21.6785 10.5307 21.7123 10.057V9.92317C21.746 8.34704 20.7909 6.91942 19.3385 6.36817C18.8773 6.20954 18.371 6.45817 18.2023 6.93067C18.0448 7.40317 18.2923 7.92067 18.7648 8.08829C19.4859 8.35829 19.9685 9.06817 19.9685 9.85454V9.88942C19.9471 10.147 20.0248 10.3957 20.1823 10.5869C20.3398 10.7782 20.576 10.8895 20.8235 10.9132Z" fill="#E6801D"/>
</svg>
