<svg width="16" height="16" viewBox="0 0 16 16" fill="none" xmlns="http://www.w3.org/2000/svg">
<g id="Iconly/Bold/Paper">
<g id="Paper">
<path id="Paper_2" fill-rule="evenodd" clip-rule="evenodd" d="M5.95041 10.9273H9.54117C9.8118 10.9273 10.0362 10.7007 10.0362 10.4273C10.0362 10.154 9.8118 9.93398 9.54117 9.93398H5.95041C5.67979 9.93398 5.45536 10.154 5.45536 10.4273C5.45536 10.7007 5.67979 10.9273 5.95041 10.9273ZM8.18144 6.60065H5.95041C5.67979 6.60065 5.45536 6.82732 5.45536 7.10065C5.45536 7.37398 5.67979 7.59398 5.95041 7.59398H8.18144C8.45206 7.59398 8.67649 7.37398 8.67649 7.10065C8.67649 6.82732 8.45206 6.60065 8.18144 6.60065ZM12.892 6.01772C13.0471 6.01593 13.2161 6.01398 13.3696 6.01398C13.5346 6.01398 13.6666 6.14732 13.6666 6.31398V11.674C13.6666 13.3273 12.3399 14.6673 10.7029 14.6673H5.44876C3.73259 14.6673 2.33325 13.2607 2.33325 11.5273V4.34065C2.33325 2.68732 3.66659 1.33398 5.31015 1.33398H8.8349C9.00652 1.33398 9.13853 1.47398 9.13853 1.64065V3.78732C9.13853 5.00732 10.1352 6.00732 11.3432 6.01398C11.6253 6.01398 11.874 6.01609 12.0917 6.01794C12.2611 6.01937 12.4116 6.02065 12.5445 6.02065C12.6384 6.02065 12.7602 6.01925 12.892 6.01772ZM13.074 5.04465C12.5314 5.04665 11.8918 5.04465 11.4317 5.03998C10.7017 5.03998 10.1004 4.43265 10.1004 3.69532V1.93798C10.1004 1.65065 10.4456 1.50798 10.643 1.71532C11.0002 2.09045 11.491 2.60611 11.9797 3.11941C12.4671 3.63143 12.9523 4.14111 13.3004 4.50665C13.4931 4.70865 13.3519 5.04398 13.074 5.04465Z" fill="#F1861D"/>
</g>
</g>
</svg>
