<svg width="19" height="19" viewBox="0 0 19 19" fill="none" xmlns="http://www.w3.org/2000/svg">
<g id="Iconly/Bold/Message">
<g id="Message">
<path id="Message_2" fill-rule="evenodd" clip-rule="evenodd" d="M13.4102 2.375C14.4718 2.375 15.4931 2.79458 16.2444 3.54746C16.9965 4.29875 17.4168 5.31208 17.4168 6.37292V12.6271C17.4168 14.8358 15.6197 16.625 13.4102 16.625H5.58933C3.37979 16.625 1.5835 14.8358 1.5835 12.6271V6.37292C1.5835 4.16417 3.37187 2.375 5.58933 2.375H13.4102ZM14.6697 7.5525L14.7331 7.48917C14.9223 7.25958 14.9223 6.92708 14.7244 6.6975C14.6143 6.57954 14.4631 6.5075 14.3056 6.49167C14.1393 6.48296 13.981 6.53917 13.8615 6.65L10.2918 9.5C9.83266 9.88079 9.17479 9.88079 8.7085 9.5L5.146 6.65C4.89979 6.46792 4.55937 6.49167 4.35433 6.70542C4.14058 6.91917 4.11683 7.25958 4.29812 7.49708L4.40183 7.6L8.00391 10.4104C8.44725 10.7587 8.98479 10.9487 9.54766 10.9487C10.109 10.9487 10.656 10.7587 11.0985 10.4104L14.6697 7.5525Z" fill="#F1861D"/>
</g>
</g>
</svg>
