<svg width="21" height="21" viewBox="0 0 21 21" fill="none" xmlns="http://www.w3.org/2000/svg">
<g id="Iconly/Bold/Edit">
<g id="Edit">
<path id="Edit_2" fill-rule="evenodd" clip-rule="evenodd" d="M8.20435 17.5244L15.8924 7.58226C16.3103 7.04612 16.4588 6.42626 16.3196 5.79512C16.1988 5.22135 15.846 4.6758 15.3168 4.26194L14.0261 3.23668C12.9026 2.34311 11.5099 2.43717 10.7113 3.46243L9.84782 4.58268C9.73639 4.72283 9.76425 4.92976 9.90353 5.04264C9.90353 5.04264 12.0855 6.79215 12.132 6.82978C12.2805 6.97087 12.3919 7.15899 12.4198 7.38473C12.4662 7.82681 12.1598 8.24068 11.7048 8.29712C11.4913 8.32533 11.287 8.25949 11.1384 8.13721L8.84502 6.31245C8.7336 6.22873 8.56647 6.2466 8.47362 6.35948L3.02325 13.414C2.67041 13.8561 2.5497 14.4298 2.67041 14.9848L3.3668 18.0041C3.40394 18.164 3.54321 18.2769 3.71035 18.2769L6.77444 18.2393C7.33155 18.2299 7.85151 17.9759 8.20435 17.5244ZM12.4947 16.5841H17.4911C17.9785 16.5841 18.375 16.9857 18.375 17.4795C18.375 17.9743 17.9785 18.375 17.4911 18.375H12.4947C12.0073 18.375 11.6108 17.9743 11.6108 17.4795C11.6108 16.9857 12.0073 16.5841 12.4947 16.5841Z" fill="#E52B2F"/>
</g>
</g>
</svg>
