<svg width="74" height="68" viewBox="0 0 74 68" fill="none" xmlns="http://www.w3.org/2000/svg">
<g filter="url(#filter0_d_44_162)">
<path d="M46.008 56.1758H64.6395V37.7305H46.008V56.1758ZM42.9027 37.7238C42.9027 36.0309 44.2952 34.6563 46.0012 34.6563H64.6463C66.3563 34.6563 67.7448 36.0349 67.7448 37.7238V56.1825C67.7448 57.8754 66.3523 59.25 64.6463 59.25H46.0012C44.2912 59.25 42.9027 57.8714 42.9027 56.1825V37.7238ZM8.30558 56.1758H29.3682L18.8369 37.7741L8.30558 56.1758ZM20.1875 33.8985L33.3829 56.9551C33.9693 57.9798 33.2217 59.25 32.0322 59.25H5.64158C4.4521 59.25 3.70454 57.9798 4.29097 56.9551L17.4863 33.8985C18.081 32.8594 19.5929 32.8594 20.1875 33.8985ZM55.3238 28.5079C47.6063 28.5079 41.3501 22.3142 41.3501 14.6739C41.3501 7.03367 47.6063 0.839996 55.3238 0.839996C63.0412 0.839996 69.2974 7.03367 69.2974 14.6739C69.2974 22.3142 63.0412 28.5079 55.3238 28.5079ZM55.3238 25.4337C61.3262 25.4337 66.1922 20.6164 66.1922 14.6739C66.1922 8.7315 61.3262 3.91421 55.3238 3.91421C49.3213 3.91421 44.4553 8.7315 44.4553 14.6739C44.4553 20.6164 49.3213 25.4337 55.3238 25.4337ZM7.63412 4.92715L27.9058 24.9962C28.4951 25.5795 29.4505 25.5795 30.0397 24.9962C30.629 24.4128 30.629 23.467 30.0397 22.8836L9.76798 2.81462C9.17873 2.23126 8.22337 2.23126 7.63412 2.81462C7.04486 3.39798 7.04486 4.34379 7.63412 4.92715Z" fill="white"/>
<path d="M9.76819 24.9963L30.0399 4.92727C30.6292 4.34392 30.6292 3.39811 30.0399 2.81475C29.4507 2.23139 28.4953 2.23139 27.9061 2.81475L7.63432 22.8838C7.04507 23.4671 7.04507 24.4129 7.63432 24.9963C8.22357 25.5796 9.17894 25.5796 9.76819 24.9963Z" fill="white"/>
</g>
<defs>
<filter id="filter0_d_44_162" x="0.0869141" y="0.839996" width="73.2104" height="66.41" filterUnits="userSpaceOnUse" color-interpolation-filters="sRGB">
<feFlood flood-opacity="0" result="BackgroundImageFix"/>
<feColorMatrix in="SourceAlpha" type="matrix" values="0 0 0 0 0 0 0 0 0 0 0 0 0 0 0 0 0 0 127 0" result="hardAlpha"/>
<feOffset dy="4"/>
<feGaussianBlur stdDeviation="2"/>
<feComposite in2="hardAlpha" operator="out"/>
<feColorMatrix type="matrix" values="0 0 0 0 0 0 0 0 0 0 0 0 0 0 0 0 0 0 0.25 0"/>
<feBlend mode="normal" in2="BackgroundImageFix" result="effect1_dropShadow_44_162"/>
<feBlend mode="normal" in="SourceGraphic" in2="effect1_dropShadow_44_162" result="shape"/>
</filter>
</defs>
</svg>
