<svg width="46" height="49" viewBox="0 0 46 49" fill="none" xmlns="http://www.w3.org/2000/svg">
<g filter="url(#filter0_d_176_5035)">
<path d="M22.9909 1.2173C23.0639 1.59366 24.4615 8.78466 24.4615 11.5313C24.4615 15.7194 21.9221 18.7063 18.1678 19.9075L19.3462 38.974C19.4101 40.0711 18.4144 41 17.1538 41H11.3077C10.0563 41 9.05144 40.0791 9.11538 38.974L10.2937 19.9075C6.53029 18.7063 4 15.7114 4 11.5313C4 8.77665 5.3976 1.59366 5.47067 1.2173C5.76298 -0.408283 9.60865 -0.432306 9.84615 1.30538V12.6124C9.9649 12.8847 11.2255 12.8686 11.3077 12.6124C11.4356 10.5864 12.0293 1.46554 12.0385 1.25734C12.3399 -0.408283 16.1216 -0.408283 16.4139 1.25734C16.4322 1.47355 17.0168 10.5864 17.1447 12.6124C17.2269 12.8686 18.4966 12.8847 18.6062 12.6124V1.30538C18.8437 -0.424299 22.6986 -0.408283 22.9909 1.2173ZM33.8793 24.0956L32.5091 38.918C32.3995 40.0391 33.4135 41 34.6923 41H39.8077C41.0226 41 42 40.1432 42 39.0781V1.92198C42 0.864956 41.0226 0.000114452 39.8077 0.000114452C32.2716 0.000114452 19.5837 14.294 33.8793 24.0956Z" fill="#F49E4A"/>
<path d="M22.4988 1.30579L22.4987 1.3058L22.5 1.3126L22.5006 1.31545C22.5398 1.51764 22.9046 3.39607 23.2602 5.5663C23.6201 7.76269 23.9615 10.206 23.9615 11.5313C23.9615 15.4775 21.5869 18.2886 18.0154 19.4313L17.6447 19.5499L17.6687 19.9383L18.847 39.0031C18.847 39.0034 18.847 39.0037 18.847 39.0039C18.89 39.7507 18.1936 40.5 17.1538 40.5H11.3077C10.2744 40.5 9.57155 39.7563 9.6145 39.0038C9.61452 39.0035 9.61453 39.0032 9.61455 39.0029L10.7928 19.9383L10.8168 19.5496L10.4458 19.4312C6.86632 18.2887 4.5 15.4704 4.5 11.5313C4.5 10.2019 4.84148 7.75862 5.20135 5.56333C5.55514 3.4051 5.91798 1.53672 5.96033 1.31864L5.96151 1.3126L5.96155 1.31261L5.96278 1.30579C5.99866 1.10623 6.14901 0.908356 6.46877 0.747668C6.78837 0.587063 7.22196 0.496568 7.67507 0.500099C8.12865 0.503634 8.55522 0.600981 8.86452 0.769185C9.15575 0.927557 9.30618 1.12388 9.34615 1.34411V12.6124V12.7167L9.38785 12.8123C9.46628 12.9921 9.60958 13.0905 9.70003 13.1399C9.79834 13.1936 9.9036 13.2271 9.99602 13.2494C10.1827 13.2943 10.3965 13.3117 10.5936 13.3106C10.7904 13.3094 11.0019 13.2896 11.1839 13.2435C11.2734 13.2209 11.378 13.1865 11.475 13.1308C11.5614 13.0812 11.7176 12.9714 11.7838 12.7651L11.8028 12.7059L11.8067 12.6439C11.8649 11.7224 12.0205 9.31631 12.1733 6.95373C12.3453 4.29572 12.5137 1.69276 12.5357 1.32075C12.5823 1.11341 12.738 0.920055 13.0384 0.764294C13.3533 0.60099 13.7805 0.508122 14.2296 0.508122C14.6788 0.508122 15.1052 0.601011 15.4187 0.764026C15.7196 0.920551 15.8734 1.11472 15.9174 1.32284L15.9185 1.3379L15.9249 1.43176L15.9464 1.757C15.9644 2.0306 15.9892 2.41205 16.0189 2.8702C16.0783 3.78647 16.157 5.00906 16.2392 6.28827C16.4037 8.84678 16.5818 11.6312 16.6457 12.6439L16.6496 12.7059L16.6686 12.7651C16.7351 12.9724 16.8927 13.0822 16.9788 13.1314C17.076 13.1868 17.1807 13.2211 17.2704 13.2437C17.4529 13.2896 17.665 13.3094 17.8623 13.3106C18.0596 13.3117 18.2739 13.2944 18.4606 13.2493C18.5528 13.227 18.6588 13.1932 18.7575 13.1385C18.8482 13.0883 18.9947 12.9863 19.0701 12.7991L19.1062 12.7093V12.6124V1.34436C19.146 1.12709 19.2959 0.931492 19.5886 0.772951C19.8992 0.604716 20.3273 0.507078 20.7824 0.503098C21.237 0.499122 21.6718 0.589071 21.9923 0.74926C22.3129 0.909555 22.463 1.10696 22.4988 1.30579ZM34.3772 24.1416L34.4042 23.8492L34.1621 23.6832C30.6651 21.2855 28.8656 18.6478 28.199 16.0704C27.5315 13.4899 27.9834 10.9065 29.1065 8.59043C30.2312 6.27124 32.0211 4.23925 33.9884 2.78917C35.9639 1.33312 38.0674 0.500114 39.8077 0.500114C40.8089 0.500114 41.5 1.19965 41.5 1.92198V39.0781C41.5 39.8072 40.8103 40.5 39.8077 40.5H34.6923C33.6336 40.5 32.9327 39.7237 33.0068 38.9666L33.007 38.964L34.3772 24.1416Z" stroke="black" stroke-opacity="0.5"/>
</g>
<defs>
<filter id="filter0_d_176_5035" x="0" y="0" width="46" height="49" filterUnits="userSpaceOnUse" color-interpolation-filters="sRGB">
<feFlood flood-opacity="0" result="BackgroundImageFix"/>
<feColorMatrix in="SourceAlpha" type="matrix" values="0 0 0 0 0 0 0 0 0 0 0 0 0 0 0 0 0 0 127 0" result="hardAlpha"/>
<feOffset dy="4"/>
<feGaussianBlur stdDeviation="2"/>
<feComposite in2="hardAlpha" operator="out"/>
<feColorMatrix type="matrix" values="0 0 0 0 0 0 0 0 0 0 0 0 0 0 0 0 0 0 0.25 0"/>
<feBlend mode="normal" in2="BackgroundImageFix" result="effect1_dropShadow_176_5035"/>
<feBlend mode="normal" in="SourceGraphic" in2="effect1_dropShadow_176_5035" result="shape"/>
</filter>
</defs>
</svg>
