<svg width="22" height="21" viewBox="0 0 22 21" fill="none" xmlns="http://www.w3.org/2000/svg">
<path d="M8.29492 0.0009166C7.58358 0.0009166 6.92175 0.367583 6.545 0.971667L5.15075 3.20558H2.97917C2.18904 3.20558 1.43128 3.51946 0.87258 4.07816C0.313877 4.63686 1.90735e-06 5.39463 1.90735e-06 6.18475V17.6431C1.90735e-06 18.4332 0.313877 19.191 0.87258 19.7497C1.43128 20.3084 2.18904 20.6222 2.97917 20.6222H19.0208C19.811 20.6222 20.5687 20.3084 21.1274 19.7497C21.6861 19.191 22 18.4332 22 17.6431V6.18475C22 5.39463 21.6861 4.63686 21.1274 4.07816C20.5687 3.51946 19.811 3.20558 19.0208 3.20558H16.6659L15.4 1.02667C15.2187 0.714458 14.9586 0.455317 14.6457 0.275151C14.3328 0.094985 13.9781 0.000106211 13.6171 0H8.29583L8.29492 0.0009166ZM8.29492 1.37592H13.6162C13.7189 1.37598 13.8203 1.39907 13.913 1.44349C14.0056 1.4879 14.0871 1.55252 14.1515 1.63258L14.2102 1.71783L15.6768 4.23867C15.7372 4.3428 15.8238 4.42928 15.928 4.48944C16.0323 4.5496 16.1505 4.58135 16.2708 4.5815H19.0208C19.4461 4.5815 19.854 4.75038 20.1548 5.05102C20.4556 5.35167 20.6248 5.75946 20.625 6.18475V17.6431C20.625 18.5286 19.9063 19.2472 19.0208 19.2472H2.97917C2.55372 19.2472 2.14569 19.0782 1.84485 18.7774C1.54401 18.4766 1.375 18.0685 1.375 17.6431V6.18475C1.375 5.7593 1.54401 5.35127 1.84485 5.05043C2.14569 4.74959 2.55372 4.58058 2.97917 4.58058H5.53209C5.64873 4.58053 5.76345 4.55081 5.86544 4.4942C5.96743 4.43759 6.05334 4.35596 6.11508 4.257L7.71192 1.69858C7.77366 1.59962 7.85957 1.51799 7.96156 1.46138C8.06355 1.40478 8.17827 1.37505 8.29492 1.375V1.37592ZM11 6.41575C9.66287 6.41575 8.3805 6.94692 7.435 7.89242C6.48951 8.83792 5.95834 10.1203 5.95834 11.4574C5.95834 12.7945 6.48951 14.0769 7.435 15.0224C8.3805 15.9679 9.66287 16.4991 11 16.4991C12.3371 16.4991 13.6195 15.9679 14.565 15.0224C15.5105 14.0769 16.0417 12.7945 16.0417 11.4574C16.0417 10.1203 15.5105 8.83792 14.565 7.89242C13.6195 6.94692 12.3371 6.41575 11 6.41575ZM11 7.79075C11.9725 7.79075 12.9051 8.17706 13.5927 8.86469C14.2804 9.55232 14.6667 10.485 14.6667 11.4574C14.6667 12.4299 14.2804 13.3625 13.5927 14.0501C12.9051 14.7378 11.9725 15.1241 11 15.1241C10.0275 15.1241 9.09491 14.7378 8.40728 14.0501C7.71964 13.3625 7.33333 12.4299 7.33333 11.4574C7.33333 10.485 7.71964 9.55232 8.40728 8.86469C9.09491 8.17706 10.0275 7.79075 11 7.79075Z" fill="#B1B1B1"/>
</svg>
