<svg width="14" height="17" viewBox="0 0 14 17" fill="none" xmlns="http://www.w3.org/2000/svg">
<path fill-rule="evenodd" clip-rule="evenodd" d="M4.08333 0H9.225C11.4833 0 13.3083 0.891667 13.3333 3.15833V15.8083C13.3333 15.95 13.3 16.0917 13.2333 16.2167C13.125 16.4167 12.9417 16.5667 12.7167 16.6333C12.5 16.7 12.2583 16.6667 12.0583 16.55L6.65833 13.85L1.25 16.55C1.12583 16.6158 0.983333 16.6583 0.841667 16.6583C0.375 16.6583 0 16.275 0 15.8083V3.15833C0 0.891667 1.83333 0 4.08333 0ZM3.51667 6.35H9.79167C10.15 6.35 10.4417 6.0575 10.4417 5.69167C10.4417 5.325 10.15 5.03333 9.79167 5.03333H3.51667C3.15833 5.03333 2.86667 5.325 2.86667 5.69167C2.86667 6.0575 3.15833 6.35 3.51667 6.35Z" fill="#F1861D"/>
</svg>
