<svg width="17" height="16" viewBox="0 0 17 16" fill="none" xmlns="http://www.w3.org/2000/svg">
<path d="M13.2657 9.85C13.0499 10.0592 12.9507 10.3617 12.9999 10.6583L13.7407 14.7583C13.8032 15.1058 13.6566 15.4575 13.3657 15.6583C13.0807 15.8667 12.7016 15.8917 12.3907 15.725L8.6999 13.8C8.57156 13.7317 8.42906 13.695 8.28323 13.6908H8.0574C7.97906 13.7025 7.9024 13.7275 7.8324 13.7658L4.14073 15.7C3.95823 15.7917 3.75156 15.8242 3.54906 15.7917C3.05573 15.6983 2.72656 15.2283 2.8074 14.7325L3.54906 10.6325C3.59823 10.3333 3.49906 10.0292 3.28323 9.81667L0.274063 6.9C0.0223965 6.65583 -0.0651035 6.28917 0.0498965 5.95833C0.161563 5.62833 0.446563 5.3875 0.79073 5.33333L4.9324 4.7325C5.2474 4.7 5.52406 4.50833 5.66573 4.225L7.49073 0.483333C7.53406 0.4 7.5899 0.323333 7.6574 0.258333L7.7324 0.2C7.77156 0.156667 7.81656 0.120833 7.86656 0.0916667L7.9574 0.0583333L8.09906 0H8.4499C8.76323 0.0325 9.03906 0.22 9.18323 0.5L11.0324 4.225C11.1657 4.4975 11.4249 4.68667 11.7241 4.7325L15.8657 5.33333C16.2157 5.38333 16.5082 5.625 16.6241 5.95833C16.7332 6.2925 16.6391 6.65917 16.3824 6.9L13.2657 9.85Z" fill="#F1861D"/>
</svg>
