<svg width="53" height="63" viewBox="0 0 53 63" fill="none" xmlns="http://www.w3.org/2000/svg">
<g filter="url(#filter0_d_44_172)">
<path d="M26.4892 1.67663C26.5757 2.17646 28.2308 11.7265 28.2308 15.3742C28.2308 20.9361 25.2236 24.9029 20.7776 26.4981L22.1731 51.8194C22.2488 53.2764 21.0697 54.51 19.5769 54.51H12.6538C11.1719 54.51 9.98197 53.287 10.0577 51.8194L11.4531 26.4981C6.99639 24.9029 4 20.9255 4 15.3742C4 11.7158 5.65505 2.17646 5.74159 1.67663C6.08774 -0.482222 10.6418 -0.514126 10.9231 1.79361V16.8099C11.0637 17.1714 12.5565 17.1502 12.6538 16.8099C12.8053 14.1193 13.5084 2.00631 13.5192 1.7298C13.8762 -0.482222 18.3546 -0.482222 18.7007 1.7298C18.7224 2.01694 19.4147 14.1193 19.5661 16.8099C19.6635 17.1502 21.1671 17.1714 21.2969 16.8099V1.79361C21.5781 -0.503492 26.143 -0.482222 26.4892 1.67663ZM39.3834 32.0601L37.7608 51.745C37.631 53.2338 38.8317 54.51 40.3462 54.51H46.4038C47.8425 54.51 49 53.3721 49 51.9577V2.61249C49 1.2087 47.8425 0.0601496 46.4038 0.0601496C37.4796 0.0601496 22.4543 19.0432 39.3834 32.0601Z" fill="white"/>
</g>
<defs>
<filter id="filter0_d_44_172" x="0" y="0.0599976" width="53" height="62.45" filterUnits="userSpaceOnUse" color-interpolation-filters="sRGB">
<feFlood flood-opacity="0" result="BackgroundImageFix"/>
<feColorMatrix in="SourceAlpha" type="matrix" values="0 0 0 0 0 0 0 0 0 0 0 0 0 0 0 0 0 0 127 0" result="hardAlpha"/>
<feOffset dy="4"/>
<feGaussianBlur stdDeviation="2"/>
<feComposite in2="hardAlpha" operator="out"/>
<feColorMatrix type="matrix" values="0 0 0 0 0 0 0 0 0 0 0 0 0 0 0 0 0 0 0.25 0"/>
<feBlend mode="normal" in2="BackgroundImageFix" result="effect1_dropShadow_44_172"/>
<feBlend mode="normal" in="SourceGraphic" in2="effect1_dropShadow_44_172" result="shape"/>
</filter>
</defs>
</svg>
