<svg width="21" height="21" viewBox="0 0 21 21" fill="none" xmlns="http://www.w3.org/2000/svg">
<g id="Iconly/Bold/Logout">
<g id="Logout">
<path id="Logout_2" fill-rule="evenodd" clip-rule="evenodd" d="M7.90843 10.0763C7.52562 10.0763 7.22293 10.3737 7.22293 10.75C7.22293 11.1175 7.52562 11.4237 7.90843 11.4237H13.25V15.6062C13.25 17.75 11.4784 19.5 9.28834 19.5H4.95276C2.77162 19.5 1 17.7588 1 15.615V5.89375C1 3.74125 2.78052 2 4.96166 2H9.30614C11.4784 2 13.25 3.74125 13.25 5.885V10.0763H7.90843ZM16.4264 7.72267L18.9814 10.2689C19.1127 10.4002 19.1827 10.5664 19.1827 10.7502C19.1827 10.9252 19.1127 11.1002 18.9814 11.2227L16.4264 13.7689C16.2952 13.9002 16.1202 13.9702 15.9539 13.9702C15.7789 13.9702 15.6039 13.9002 15.4727 13.7689C15.2102 13.5064 15.2102 13.0777 15.4727 12.8152L16.8727 11.4239H13.2502V10.0764H16.8727L15.4727 8.68517C15.2102 8.42268 15.2102 7.99393 15.4727 7.73142C15.7352 7.46018 16.1639 7.46018 16.4264 7.72267Z" fill="#E82B2F"/>
</g>
</g>
</svg>
