<svg width="73" height="66" viewBox="0 0 73 66" fill="none" xmlns="http://www.w3.org/2000/svg">
<g filter="url(#filter0_d_44_159)">
<path fill-rule="evenodd" clip-rule="evenodd" d="M4 2.94104C4 1.74201 4.97005 0.769989 6.16667 0.769989H14.8333C16.0299 0.769989 17 1.74201 17 2.94104C17 4.14007 16.0299 5.11209 14.8333 5.11209H6.16667C4.97005 5.11209 4 4.14007 4 2.94104ZM21.3333 2.94104C21.3333 1.74201 22.3034 0.769989 23.5 0.769989H66.8333C68.0298 0.769989 69 1.74201 69 2.94104C69 4.14007 68.0298 5.11209 66.8333 5.11209H23.5C22.3034 5.11209 21.3333 4.14007 21.3333 2.94104ZM21.3333 15.9674C21.3333 14.7683 22.3034 13.7963 23.5 13.7963H53.8333C55.0298 13.7963 56 14.7683 56 15.9674C56 17.1664 55.0298 18.1384 53.8333 18.1384H23.5C22.3034 18.1384 21.3333 17.1664 21.3333 15.9674ZM4 28.9937C4 27.7946 4.97005 26.8226 6.16667 26.8226H14.8333C16.0299 26.8226 17 27.7946 17 28.9937C17 30.1927 16.0299 31.1647 14.8333 31.1647H6.16667C4.97005 31.1647 4 30.1927 4 28.9937ZM21.3333 28.9937C21.3333 27.7946 22.3034 26.8226 23.5 26.8226H66.8333C68.0298 26.8226 69 27.7946 69 28.9937C69 30.1927 68.0298 31.1647 66.8333 31.1647H23.5C22.3034 31.1647 21.3333 30.1927 21.3333 28.9937ZM21.3333 42.02C21.3333 40.8211 22.3034 39.8489 23.5 39.8489H53.8333C55.0298 39.8489 56 40.8211 56 42.02C56 43.2188 55.0298 44.191 53.8333 44.191H23.5C22.3034 44.191 21.3333 43.2188 21.3333 42.02ZM4 55.0463C4 53.8475 4.97005 52.8753 6.16667 52.8753H14.8333C16.0299 52.8753 17 53.8475 17 55.0463C17 56.2452 16.0299 57.2174 14.8333 57.2174H6.16667C4.97005 57.2174 4 56.2452 4 55.0463ZM21.3333 55.0463C21.3333 53.8475 22.3034 52.8753 23.5 52.8753H66.8333C68.0298 52.8753 69 53.8475 69 55.0463C69 56.2452 68.0298 57.2174 66.8333 57.2174H23.5C22.3034 57.2174 21.3333 56.2452 21.3333 55.0463Z" fill="white"/>
</g>
<defs>
<filter id="filter0_d_44_159" x="0" y="0.769989" width="73" height="64.4474" filterUnits="userSpaceOnUse" color-interpolation-filters="sRGB">
<feFlood flood-opacity="0" result="BackgroundImageFix"/>
<feColorMatrix in="SourceAlpha" type="matrix" values="0 0 0 0 0 0 0 0 0 0 0 0 0 0 0 0 0 0 127 0" result="hardAlpha"/>
<feOffset dy="4"/>
<feGaussianBlur stdDeviation="2"/>
<feComposite in2="hardAlpha" operator="out"/>
<feColorMatrix type="matrix" values="0 0 0 0 0 0 0 0 0 0 0 0 0 0 0 0 0 0 0.25 0"/>
<feBlend mode="normal" in2="BackgroundImageFix" result="effect1_dropShadow_44_159"/>
<feBlend mode="normal" in="SourceGraphic" in2="effect1_dropShadow_44_159" result="shape"/>
</filter>
</defs>
</svg>
