<svg width="19" height="19" viewBox="0 0 19 19" fill="none" xmlns="http://www.w3.org/2000/svg">
<path d="M18.4037 4.15375L14.8463 0.596252C14.4645 0.214481 13.9467 2.82318e-06 13.4068 0H2.03571C0.911406 0 0 0.911406 0 2.03571V16.9643C0 18.0886 0.911406 19 2.03571 19H16.9643C18.0886 19 19 18.0886 19 16.9643V5.59321C19 5.05331 18.7855 4.53552 18.4037 4.15375ZM9.5 16.2857C8.00095 16.2857 6.78571 15.0705 6.78571 13.5714C6.78571 12.0724 8.00095 10.8571 9.5 10.8571C10.999 10.8571 12.2143 12.0724 12.2143 13.5714C12.2143 15.0705 10.999 16.2857 9.5 16.2857ZM13.5714 3.3708V7.63393C13.5714 7.91498 13.3436 8.14286 13.0625 8.14286H3.22321C2.94216 8.14286 2.71429 7.91498 2.71429 7.63393V3.22321C2.71429 2.94216 2.94216 2.71429 3.22321 2.71429H12.9149C13.0499 2.71429 13.1793 2.76789 13.2748 2.86336L13.4224 3.01095C13.4696 3.0582 13.5071 3.1143 13.5327 3.17604C13.5583 3.23779 13.5714 3.30397 13.5714 3.3708Z" fill="white"/>
</svg>
