<svg width="35" height="35" viewBox="0 0 35 35" fill="none" xmlns="http://www.w3.org/2000/svg">
<g id="Iconly/Light/3 User">
<g id="3 User">
<path id="Stroke 1" d="M26.0862 15.891C28.1206 15.6052 29.6868 13.861 29.6912 11.7479C29.6912 9.66539 28.1731 7.93873 26.1824 7.61206" stroke="white" stroke-width="1.5" stroke-linecap="round" stroke-linejoin="round"/>
<path id="Stroke 3" d="M28.7706 20.7816C30.7408 21.0762 32.116 21.766 32.116 23.1879C32.116 24.1664 31.4685 24.8022 30.4215 25.2018" stroke="white" stroke-width="1.5" stroke-linecap="round" stroke-linejoin="round"/>
<path id="Stroke 5" fill-rule="evenodd" clip-rule="evenodd" d="M17.3347 21.3846C12.6477 21.3846 8.64453 22.0949 8.64453 24.9313C8.64453 27.7663 12.6229 28.4969 17.3347 28.4969C22.0218 28.4969 26.0235 27.794 26.0235 24.9561C26.0235 22.1182 22.0466 21.3846 17.3347 21.3846Z" stroke="white" stroke-width="1.5" stroke-linecap="round" stroke-linejoin="round"/>
<path id="Stroke 7" fill-rule="evenodd" clip-rule="evenodd" d="M17.3347 17.3365C20.4103 17.3365 22.9041 14.8442 22.9041 11.7671C22.9041 8.6915 20.4103 6.19775 17.3347 6.19775C14.259 6.19775 11.7653 8.6915 11.7653 11.7671C11.7536 14.8325 14.2284 17.3263 17.2938 17.3365H17.3347Z" stroke="white" stroke-width="1.5" stroke-linecap="round" stroke-linejoin="round"/>
<path id="Stroke 9" d="M8.58193 15.891C6.5461 15.6052 4.9813 13.861 4.97693 11.7479C4.97693 9.66539 6.49505 7.93873 8.48568 7.61206" stroke="white" stroke-width="1.5" stroke-linecap="round" stroke-linejoin="round"/>
<path id="Stroke 11" d="M5.8973 20.7816C3.92709 21.0762 2.55188 21.766 2.55188 23.1879C2.55188 24.1664 3.19938 24.8022 4.24646 25.2018" stroke="white" stroke-width="1.5" stroke-linecap="round" stroke-linejoin="round"/>
</g>
</g>
</svg>
