<svg width="78" height="79" viewBox="0 0 78 79" fill="none" xmlns="http://www.w3.org/2000/svg">
<g filter="url(#filter0_d_44_177)">
<path fill-rule="evenodd" clip-rule="evenodd" d="M53.3354 9.10804L53.3386 11.52C62.2912 12.2146 68.205 18.254 68.2146 27.5158L68.2499 54.6257C68.2628 64.7236 61.8548 70.9367 51.5833 70.9528L26.4936 70.985C16.2864 70.9978 9.79815 64.6368 9.78532 54.51L9.75002 27.7184C9.73719 18.3955 15.4425 12.3722 24.3951 11.5585L24.3918 9.14663C24.3886 7.73164 25.4475 6.66718 26.8594 6.66718C28.2713 6.66396 29.3302 7.7252 29.3334 9.14019L29.3366 11.3913L48.397 11.3656L48.3938 9.11447C48.3906 7.69948 49.4495 6.63823 50.8614 6.63502C52.2412 6.6318 53.3321 7.69304 53.3354 9.10804ZM14.6948 28.7121L63.2763 28.6478V27.5222C63.1383 20.6081 59.6343 16.9805 53.345 16.4403L53.3482 18.9165C53.3482 20.2993 52.2604 21.396 50.8806 21.396C49.4688 21.3992 48.4066 20.3058 48.4066 18.9229L48.4034 16.3181L29.3431 16.3438L29.3463 18.9454C29.3463 20.3315 28.2906 21.4249 26.8787 21.4249C25.4668 21.4281 24.4047 20.3379 24.4047 18.9519L24.4015 16.4756C18.1443 17.0963 14.682 20.7367 14.6916 27.712L14.6948 28.7121ZM49.5297 43.3283V43.3637C49.5618 44.843 50.7812 45.9654 52.2604 45.9332C53.7044 45.8978 54.8564 44.6726 54.8243 43.1933C54.7569 41.7783 53.5985 40.6238 52.1577 40.627C50.6817 40.6591 49.5265 41.849 49.5297 43.3283ZM52.1802 57.7677C50.7041 57.7355 49.5137 56.5167 49.5105 55.0374C49.4784 53.5581 50.6624 52.3328 52.1385 52.2974H52.1706C53.6787 52.2974 54.9013 53.5163 54.9013 55.0277C54.9045 56.5392 53.6851 57.7644 52.1802 57.7677ZM36.3094 43.3798C36.3736 44.8591 37.5961 46.0136 39.0722 45.9493C40.5162 45.8817 41.6681 44.6597 41.604 43.1804C41.5687 41.7332 40.3814 40.6077 38.9374 40.6109C37.4614 40.6752 36.3062 41.9005 36.3094 43.3798ZM39.085 57.6229C37.609 57.6873 36.3896 56.5328 36.3222 55.0535C36.3222 53.5741 37.4742 52.3521 38.9503 52.2846C40.3942 52.2814 41.5847 53.4069 41.6168 54.8509C41.6842 56.3334 40.529 57.5554 39.085 57.6229ZM23.0891 43.4923C23.1533 44.9716 24.3758 46.1294 25.8519 46.0618C27.2958 45.9975 28.4478 44.7723 28.3804 43.2929C28.3483 41.8458 27.1611 40.7202 25.7139 40.7234C24.2378 40.7878 23.0859 42.013 23.0891 43.4923ZM25.8647 57.639C24.3887 57.7066 23.1693 56.5488 23.1019 55.0695C23.0987 53.5902 24.2539 52.365 25.7299 52.3006C27.1739 52.2974 28.3644 53.423 28.3965 54.8701C28.4639 56.3495 27.3119 57.5747 25.8647 57.639Z" fill="white"/>
</g>
<defs>
<filter id="filter0_d_44_177" x="-4" y="0.200012" width="86" height="85.22" filterUnits="userSpaceOnUse" color-interpolation-filters="sRGB">
<feFlood flood-opacity="0" result="BackgroundImageFix"/>
<feColorMatrix in="SourceAlpha" type="matrix" values="0 0 0 0 0 0 0 0 0 0 0 0 0 0 0 0 0 0 127 0" result="hardAlpha"/>
<feOffset dy="4"/>
<feGaussianBlur stdDeviation="2"/>
<feComposite in2="hardAlpha" operator="out"/>
<feColorMatrix type="matrix" values="0 0 0 0 0 0 0 0 0 0 0 0 0 0 0 0 0 0 0.25 0"/>
<feBlend mode="normal" in2="BackgroundImageFix" result="effect1_dropShadow_44_177"/>
<feBlend mode="normal" in="SourceGraphic" in2="effect1_dropShadow_44_177" result="shape"/>
</filter>
</defs>
</svg>
