<svg width="49" height="37" viewBox="0 0 49 37" fill="none" xmlns="http://www.w3.org/2000/svg">
<path d="M27.5625 6.41141V4.625H29.0938C29.9398 4.625 30.625 3.9351 30.625 3.08333V1.54167C30.625 0.689896 29.9398 0 29.0938 0H19.9062C19.0602 0 18.375 0.689896 18.375 1.54167V3.08333C18.375 3.9351 19.0602 4.625 19.9062 4.625H21.4375V6.41141C11.0528 7.91164 3.0625 16.8793 3.0625 27.75H45.9375C45.9375 16.8793 37.9472 7.91164 27.5625 6.41141ZM47.4688 30.8333H1.53125C0.685234 30.8333 0 31.5232 0 32.375V35.4583C0 36.3101 0.685234 37 1.53125 37H47.4688C48.3148 37 49 36.3101 49 35.4583V32.375C49 31.5232 48.3148 30.8333 47.4688 30.8333Z" fill="#F49E4A"/>
</svg>
