<svg width="19" height="25" viewBox="0 0 19 25" fill="none" xmlns="http://www.w3.org/2000/svg">
<path d="M14.5521 10.4623L13.9547 4.6875H16.0156C16.6628 4.6875 17.1875 4.16284 17.1875 3.51562V1.17188C17.1875 0.524658 16.6628 0 16.0156 0H2.73438C2.08716 0 1.5625 0.524658 1.5625 1.17188V3.51562C1.5625 4.16284 2.08716 4.6875 2.73438 4.6875H4.79526L4.19785 10.4623C1.82935 11.5635 0 13.5381 0 16.0156C0 16.6628 0.524658 17.1875 1.17188 17.1875H7.8125V22.266C7.8125 22.3266 7.82661 22.3864 7.85376 22.4407L9.02563 24.7844C9.16924 25.0716 9.58052 25.0722 9.72441 24.7844L10.8963 22.4407C10.9234 22.3864 10.9375 22.3266 10.9375 22.266V17.1875H17.5782C18.2254 17.1875 18.75 16.6628 18.75 16.0156C18.75 13.5165 16.8954 11.5518 14.5521 10.4623Z" fill="white"/>
</svg>
