<svg width="16" height="16" viewBox="0 0 16 16" fill="none" xmlns="http://www.w3.org/2000/svg">
<g id="Iconly/Bold/Calendar">
<g id="Calendar">
<path id="Calendar_2" fill-rule="evenodd" clip-rule="evenodd" d="M10.9406 1.8464L10.9412 2.34615C12.7777 2.49007 13.9908 3.74145 13.9927 5.66049L14 11.2777C14.0026 13.37 12.6882 14.6573 10.5812 14.6606L5.43459 14.6673C3.3408 14.67 2.00988 13.352 2.00724 11.2537L2 5.70246C1.99737 3.77077 3.16768 2.52272 5.00411 2.35414L5.00346 1.85439C5.0028 1.56121 5.22001 1.34065 5.50963 1.34065C5.79924 1.33998 6.01645 1.55987 6.01711 1.85306L6.01777 2.31949L9.92759 2.31416L9.92693 1.84773C9.92627 1.55454 10.1435 1.33465 10.4331 1.33399C10.7161 1.33332 10.9399 1.55321 10.9406 1.8464ZM3.01432 5.90836L12.9797 5.89503V5.66182C12.9514 4.2292 12.2327 3.47758 10.9426 3.36563L10.9432 3.87871C10.9432 4.16523 10.7201 4.39245 10.437 4.39245C10.1474 4.39312 9.92956 4.16657 9.92956 3.88004L9.9289 3.34031L6.01908 3.34564L6.01974 3.88471C6.01974 4.1719 5.80319 4.39845 5.51357 4.39845C5.22396 4.39912 5.00609 4.17323 5.00609 3.88604L5.00543 3.37296C3.7219 3.50157 3.01168 4.25586 3.01366 5.70113L3.01432 5.90836ZM10.1599 8.93684V8.94417C10.1665 9.25069 10.4166 9.48324 10.7201 9.47657C11.0163 9.46924 11.2526 9.21537 11.246 8.90886C11.2322 8.61567 10.9946 8.37646 10.699 8.37712C10.3962 8.38379 10.1593 8.63033 10.1599 8.93684ZM10.7036 11.9287C10.4008 11.922 10.1566 11.6695 10.156 11.363C10.1494 11.0564 10.3923 10.8026 10.6951 10.7952H10.7017C11.011 10.7952 11.2618 11.0478 11.2618 11.361C11.2625 11.6741 11.0123 11.928 10.7036 11.9287ZM7.44808 8.94751C7.46124 9.25402 7.71202 9.49323 8.0148 9.47991C8.311 9.46591 8.5473 9.21271 8.53414 8.90619C8.5269 8.60634 8.28336 8.37313 7.98716 8.37379C7.68438 8.38712 7.44742 8.64099 7.44808 8.94751ZM8.01744 11.8987C7.71466 11.912 7.46453 11.6728 7.45071 11.3663C7.45071 11.0598 7.68701 10.8066 7.98979 10.7926C8.28599 10.7919 8.53019 11.0251 8.53677 11.3243C8.55059 11.6315 8.31364 11.8847 8.01744 11.8987ZM4.73622 8.97083C4.74938 9.27734 5.00016 9.51722 5.30294 9.50323C5.59914 9.4899 5.83544 9.23603 5.82162 8.92951C5.81504 8.62966 5.5715 8.39645 5.27464 8.39711C4.97186 8.41044 4.73556 8.66431 4.73622 8.97083ZM5.30558 11.902C5.0028 11.916 4.75267 11.6761 4.73885 11.3696C4.73819 11.0631 4.97515 10.8092 5.27793 10.7959C5.57413 10.7952 5.81833 11.0285 5.82491 11.3283C5.83873 11.6348 5.60243 11.8887 5.30558 11.902Z" fill="#F1861D"/>
</g>
</g>
</svg>
