<svg width="260" height="16" viewBox="0 0 260 16" fill="none" xmlns="http://www.w3.org/2000/svg">
<path d="M6.045 7.346C6.55633 7.44133 6.97667 7.697 7.306 8.113C7.63533 8.529 7.8 9.00567 7.8 9.543C7.8 10.0283 7.67867 10.4573 7.436 10.83C7.202 11.194 6.85967 11.48 6.409 11.688C5.95833 11.896 5.42533 12 4.81 12H0.897V2.926H4.641C5.25633 2.926 5.785 3.02567 6.227 3.225C6.67767 3.42433 7.01567 3.70167 7.241 4.057C7.475 4.41233 7.592 4.81533 7.592 5.266C7.592 5.79467 7.449 6.23667 7.163 6.592C6.88567 6.94733 6.513 7.19867 6.045 7.346ZM2.717 6.67H4.381C4.81433 6.67 5.148 6.57467 5.382 6.384C5.616 6.18467 5.733 5.903 5.733 5.539C5.733 5.175 5.616 4.89333 5.382 4.694C5.148 4.49467 4.81433 4.395 4.381 4.395H2.717V6.67ZM4.55 10.518C4.992 10.518 5.33433 10.414 5.577 10.206C5.82833 9.998 5.954 9.70333 5.954 9.322C5.954 8.932 5.824 8.62867 5.564 8.412C5.304 8.18667 4.953 8.074 4.511 8.074H2.717V10.518H4.55ZM10.1735 3.94C9.85285 3.94 9.58418 3.84033 9.36752 3.641C9.15952 3.433 9.05552 3.17733 9.05552 2.874C9.05552 2.57067 9.15952 2.31933 9.36752 2.12C9.58418 1.912 9.85285 1.808 10.1735 1.808C10.4942 1.808 10.7585 1.912 10.9665 2.12C11.1832 2.31933 11.2915 2.57067 11.2915 2.874C11.2915 3.17733 11.1832 3.433 10.9665 3.641C10.7585 3.84033 10.4942 3.94 10.1735 3.94ZM11.0705 4.798V12H9.25052V4.798H11.0705ZM14.5327 10.505H17.7437V12H12.4657V10.531L15.6117 6.293H12.4787V4.798H17.7047V6.267L14.5327 10.505ZM20.0759 3.94C19.7552 3.94 19.4865 3.84033 19.2699 3.641C19.0619 3.433 18.9579 3.17733 18.9579 2.874C18.9579 2.57067 19.0619 2.31933 19.2699 2.12C19.4865 1.912 19.7552 1.808 20.0759 1.808C20.3965 1.808 20.6609 1.912 20.8689 2.12C21.0855 2.31933 21.1939 2.57067 21.1939 2.874C21.1939 3.17733 21.0855 3.433 20.8689 3.641C20.6609 3.84033 20.3965 3.94 20.0759 3.94ZM20.9729 4.798V12H19.1529V4.798H20.9729ZM157.346 2.926V4.395H154.928V12H153.108V4.395H150.69V2.926H157.346ZM160.494 4.395V6.67H163.549V8.113H160.494V10.518H163.939V12H158.674V2.913H163.939V4.395H160.494ZM171.937 9.374C171.937 9.80733 171.833 10.2147 171.625 10.596C171.426 10.9773 171.127 11.298 170.728 11.558C170.338 11.818 169.87 11.9827 169.324 12.052V12.65C169.801 12.65 170.2 12.7713 170.52 13.014C170.85 13.2567 171.014 13.6077 171.014 14.067C171.014 14.535 170.845 14.8947 170.507 15.146C170.178 15.3973 169.771 15.523 169.285 15.523H167.439V14.457H168.986C169.194 14.457 169.35 14.4267 169.454 14.366C169.567 14.3053 169.623 14.197 169.623 14.041C169.623 13.885 169.567 13.7767 169.454 13.716C169.35 13.664 169.194 13.638 168.986 13.638H168.18V12.065C167.348 11.9697 166.672 11.688 166.152 11.22C165.632 10.752 165.368 10.141 165.359 9.387H167.309C167.335 9.75967 167.465 10.0543 167.699 10.271C167.942 10.4877 168.271 10.596 168.687 10.596C169.112 10.596 169.446 10.4963 169.688 10.297C169.931 10.089 170.052 9.82033 170.052 9.491C170.052 9.22233 169.97 9.00133 169.805 8.828C169.641 8.65467 169.433 8.52033 169.181 8.425C168.939 8.321 168.601 8.20833 168.167 8.087C167.578 7.91367 167.097 7.74467 166.724 7.58C166.36 7.40667 166.044 7.151 165.775 6.813C165.515 6.46633 165.385 6.007 165.385 5.435C165.385 4.89767 165.52 4.42967 165.788 4.031C166.057 3.63233 166.434 3.329 166.919 3.121C167.405 2.90433 167.959 2.796 168.583 2.796C169.519 2.796 170.278 3.02567 170.858 3.485C171.448 3.93567 171.773 4.56833 171.833 5.383H169.831C169.814 5.071 169.68 4.81533 169.428 4.616C169.186 4.408 168.861 4.304 168.453 4.304C168.098 4.304 167.812 4.395 167.595 4.577C167.387 4.759 167.283 5.02333 167.283 5.37C167.283 5.61267 167.361 5.81633 167.517 5.981C167.682 6.137 167.881 6.267 168.115 6.371C168.358 6.46633 168.696 6.579 169.129 6.709C169.719 6.88233 170.2 7.05567 170.572 7.229C170.945 7.40233 171.266 7.66233 171.534 8.009C171.803 8.35567 171.937 8.81067 171.937 9.374ZM175.335 4.395V6.67H178.39V8.113H175.335V10.518H178.78V12H173.515V2.913H178.78V4.395H175.335ZM185.556 12L182.254 7.957V12H180.434V2.926H182.254V6.995L185.556 2.926H187.753L184.009 7.424L187.857 12H185.556ZM194.176 12L190.874 7.957V12H189.054V2.926H190.874V6.995L194.176 2.926H196.373L192.629 7.424L196.477 12H194.176ZM199.468 2.926V8.542C199.468 9.15733 199.629 9.62967 199.949 9.959C200.27 10.2797 200.721 10.44 201.301 10.44C201.891 10.44 202.346 10.2797 202.666 9.959C202.987 9.62967 203.147 9.15733 203.147 8.542V2.926H204.98V8.529C204.98 9.30033 204.811 9.95467 204.473 10.492C204.144 11.0207 203.698 11.4193 203.134 11.688C202.58 11.9567 201.96 12.091 201.275 12.091C200.599 12.091 199.984 11.9567 199.429 11.688C198.883 11.4193 198.45 11.0207 198.129 10.492C197.809 9.95467 197.648 9.30033 197.648 8.529V2.926H199.468ZM200.105 2.055C199.863 2.055 199.659 1.97267 199.494 1.808C199.33 1.64333 199.247 1.43967 199.247 1.197C199.247 0.954333 199.33 0.750666 199.494 0.586C199.659 0.412666 199.863 0.325999 200.105 0.325999C200.348 0.325999 200.552 0.412666 200.716 0.586C200.89 0.750666 200.976 0.954333 200.976 1.197C200.976 1.43967 200.89 1.64333 200.716 1.808C200.552 1.97267 200.348 2.055 200.105 2.055ZM202.51 2.055C202.268 2.055 202.064 1.97267 201.899 1.808C201.735 1.64333 201.652 1.43967 201.652 1.197C201.652 0.954333 201.735 0.750666 201.899 0.586C202.064 0.412666 202.268 0.325999 202.51 0.325999C202.753 0.325999 202.957 0.412666 203.121 0.586C203.295 0.750666 203.381 0.954333 203.381 1.197C203.381 1.43967 203.295 1.64333 203.121 1.808C202.957 1.97267 202.753 2.055 202.51 2.055ZM211.419 12L209.417 8.464H208.559V12H206.739V2.926H210.145C210.847 2.926 211.445 3.05167 211.939 3.303C212.433 3.54567 212.801 3.87933 213.044 4.304C213.295 4.72 213.421 5.188 213.421 5.708C213.421 6.306 213.247 6.84767 212.901 7.333C212.554 7.80967 212.038 8.139 211.354 8.321L213.525 12H211.419ZM208.559 7.099H210.08C210.574 7.099 210.942 6.982 211.185 6.748C211.427 6.50533 211.549 6.17167 211.549 5.747C211.549 5.331 211.427 5.01033 211.185 4.785C210.942 4.551 210.574 4.434 210.08 4.434H208.559V7.099ZM219.985 4.395V6.67H223.04V8.113H219.985V10.518H223.43V12H218.165V2.913H223.43V4.395H219.985ZM228.256 2.926C229.209 2.926 230.045 3.11233 230.765 3.485C231.493 3.85767 232.052 4.39067 232.442 5.084C232.84 5.76867 233.04 6.566 233.04 7.476C233.04 8.386 232.84 9.18333 232.442 9.868C232.052 10.544 231.493 11.0683 230.765 11.441C230.045 11.8137 229.209 12 228.256 12H225.084V2.926H228.256ZM228.191 10.453C229.144 10.453 229.881 10.193 230.401 9.673C230.921 9.153 231.181 8.42067 231.181 7.476C231.181 6.53133 230.921 5.79467 230.401 5.266C229.881 4.72867 229.144 4.46 228.191 4.46H226.904V10.453H228.191ZM236.222 4.395V6.67H239.277V8.113H236.222V10.518H239.667V12H234.402V2.913H239.667V4.395H236.222ZM246.001 12L243.999 8.464H243.141V12H241.321V2.926H244.727C245.429 2.926 246.027 3.05167 246.521 3.303C247.015 3.54567 247.383 3.87933 247.626 4.304C247.877 4.72 248.003 5.188 248.003 5.708C248.003 6.306 247.829 6.84767 247.483 7.333C247.136 7.80967 246.62 8.139 245.936 8.321L248.107 12H246.001ZM243.141 7.099H244.662C245.156 7.099 245.524 6.982 245.767 6.748C246.009 6.50533 246.131 6.17167 246.131 5.747C246.131 5.331 246.009 5.01033 245.767 4.785C245.524 4.551 245.156 4.434 244.662 4.434H243.141V7.099ZM251.469 2.926V12H249.649V2.926H251.469ZM250.559 2.055C250.316 2.055 250.113 1.97267 249.948 1.808C249.783 1.64333 249.701 1.43967 249.701 1.197C249.701 0.954333 249.783 0.750666 249.948 0.586C250.113 0.412666 250.316 0.325999 250.559 0.325999C250.802 0.325999 251.005 0.412666 251.17 0.586C251.343 0.750666 251.43 0.954333 251.43 1.197C251.43 1.43967 251.343 1.64333 251.17 1.808C251.005 1.97267 250.802 2.055 250.559 2.055ZM255.126 10.466H259.208V12H253.02V10.596L257.076 4.46H253.02V2.926H259.208V4.33L255.126 10.466Z" fill="#F1861D"/>
<path d="M32.0437 2.926V4.395H29.6257V12H27.8057V4.395H25.3877V2.926H32.0437ZM40.0666 8.243C40.0666 8.503 40.0493 8.737 40.0146 8.945H34.7496C34.7929 9.465 34.9749 9.87233 35.2956 10.167C35.6163 10.4617 36.0106 10.609 36.4786 10.609C37.1546 10.609 37.6356 10.3187 37.9216 9.738H39.8846C39.6766 10.4313 39.2779 11.0033 38.6886 11.454C38.0993 11.896 37.3756 12.117 36.5176 12.117C35.8243 12.117 35.2003 11.9653 34.6456 11.662C34.0996 11.35 33.6706 10.9123 33.3586 10.349C33.0553 9.78567 32.9036 9.13567 32.9036 8.399C32.9036 7.65367 33.0553 6.99933 33.3586 6.436C33.6619 5.87267 34.0866 5.43933 34.6326 5.136C35.1786 4.83267 35.8069 4.681 36.5176 4.681C37.2023 4.681 37.8133 4.82833 38.3506 5.123C38.8966 5.41767 39.3169 5.838 39.6116 6.384C39.9149 6.92133 40.0666 7.541 40.0666 8.243ZM38.1816 7.723C38.1729 7.255 38.0039 6.88233 37.6746 6.605C37.3453 6.319 36.9423 6.176 36.4656 6.176C36.0149 6.176 35.6336 6.31467 35.3216 6.592C35.0183 6.86067 34.8319 7.23767 34.7626 7.723H38.1816ZM43.215 5.916C43.449 5.53467 43.7524 5.23567 44.125 5.019C44.5064 4.80233 44.9397 4.694 45.425 4.694V6.605H44.944C44.372 6.605 43.9387 6.73933 43.644 7.008C43.358 7.27667 43.215 7.74467 43.215 8.412V12H41.395V4.798H43.215V5.916ZM46.1829 8.399C46.1829 7.65367 46.3346 7.00367 46.6379 6.449C46.9412 5.88567 47.3616 5.45233 47.8989 5.149C48.4362 4.837 49.0516 4.681 49.7449 4.681C50.6376 4.681 51.3742 4.90633 51.9549 5.357C52.5442 5.799 52.9386 6.423 53.1379 7.229H51.1749C51.0709 6.917 50.8932 6.67433 50.6419 6.501C50.3992 6.319 50.0959 6.228 49.7319 6.228C49.2119 6.228 48.8002 6.41867 48.4969 6.8C48.1936 7.17267 48.0419 7.70567 48.0419 8.399C48.0419 9.08367 48.1936 9.61667 48.4969 9.998C48.8002 10.3707 49.2119 10.557 49.7319 10.557C50.4686 10.557 50.9496 10.2277 51.1749 9.569H53.1379C52.9386 10.349 52.5442 10.9687 51.9549 11.428C51.3656 11.8873 50.6289 12.117 49.7449 12.117C49.0516 12.117 48.4362 11.9653 47.8989 11.662C47.3616 11.35 46.9412 10.9167 46.6379 10.362C46.3346 9.79867 46.1829 9.14433 46.1829 8.399ZM55.3942 3.94C55.0736 3.94 54.8049 3.84033 54.5882 3.641C54.3802 3.433 54.2762 3.17733 54.2762 2.874C54.2762 2.57067 54.3802 2.31933 54.5882 2.12C54.8049 1.912 55.0736 1.808 55.3942 1.808C55.7149 1.808 55.9792 1.912 56.1872 2.12C56.4039 2.31933 56.5122 2.57067 56.5122 2.874C56.5122 3.17733 56.4039 3.433 56.1872 3.641C55.9792 3.84033 55.7149 3.94 55.3942 3.94ZM56.2912 4.798V12H54.4712V4.798H56.2912ZM62.1454 4.694C62.6914 4.694 63.1767 4.81533 63.6014 5.058C64.0261 5.292 64.3554 5.643 64.5894 6.111C64.832 6.57033 64.9534 7.125 64.9534 7.775V12H63.1334V8.022C63.1334 7.45 62.9904 7.01233 62.7044 6.709C62.4184 6.397 62.0284 6.241 61.5344 6.241C61.0317 6.241 60.633 6.397 60.3384 6.709C60.0524 7.01233 59.9094 7.45 59.9094 8.022V12H58.0894V2.38H59.9094V5.695C60.1434 5.383 60.4554 5.14033 60.8454 4.967C61.2354 4.785 61.6687 4.694 62.1454 4.694Z" fill="#88BE37"/>
<path d="M71.6018 4.395V6.67H74.6568V8.113H71.6018V10.518H75.0468V12H69.7818V2.913H75.0468V4.395H71.6018ZM78.8197 6.293V9.777C78.8197 10.0197 78.876 10.1973 78.9887 10.31C79.11 10.414 79.3094 10.466 79.5867 10.466H80.4317V12H79.2877C77.7537 12 76.9867 11.2547 76.9867 9.764V6.293H76.1287V4.798H76.9867V3.017H78.8197V4.798H80.4317V6.293H78.8197ZM83.8598 6.293V9.777C83.8598 10.0197 83.9161 10.1973 84.0288 10.31C84.1501 10.414 84.3494 10.466 84.6268 10.466H85.4718V12H84.3278C82.7938 12 82.0268 11.2547 82.0268 9.764V6.293H81.1688V4.798H82.0268V3.017H83.8598V4.798H85.4718V6.293H83.8598ZM87.7038 3.94C87.3831 3.94 87.1145 3.84033 86.8978 3.641C86.6898 3.433 86.5858 3.17733 86.5858 2.874C86.5858 2.57067 86.6898 2.31933 86.8978 2.12C87.1145 1.912 87.3831 1.808 87.7038 1.808C88.0245 1.808 88.2888 1.912 88.4968 2.12C88.7135 2.31933 88.8218 2.57067 88.8218 2.874C88.8218 3.17733 88.7135 3.433 88.4968 3.641C88.2888 3.84033 88.0245 3.94 87.7038 3.94ZM88.6008 4.798V12H86.7808V4.798H88.6008ZM93.22 4.681C93.7573 4.681 94.2296 4.78933 94.637 5.006C95.0443 5.214 95.365 5.487 95.599 5.825V4.798H97.432V12.052C97.432 12.7193 97.2976 13.313 97.029 13.833C96.7603 14.3617 96.3573 14.7777 95.82 15.081C95.2826 15.393 94.6326 15.549 93.87 15.549C92.8473 15.549 92.0066 15.3107 91.348 14.834C90.698 14.3573 90.3296 13.7073 90.243 12.884H92.05C92.1453 13.2133 92.349 13.4733 92.661 13.664C92.9816 13.8633 93.3673 13.963 93.818 13.963C94.3466 13.963 94.7756 13.8027 95.105 13.482C95.4343 13.17 95.599 12.6933 95.599 12.052V10.934C95.365 11.272 95.04 11.5537 94.624 11.779C94.2166 12.0043 93.7486 12.117 93.22 12.117C92.6133 12.117 92.0586 11.961 91.556 11.649C91.0533 11.337 90.6546 10.8993 90.36 10.336C90.074 9.764 89.931 9.10967 89.931 8.373C89.931 7.645 90.074 6.99933 90.36 6.436C90.6546 5.87267 91.049 5.43933 91.543 5.136C92.0456 4.83267 92.6046 4.681 93.22 4.681ZM95.599 8.399C95.599 7.957 95.5123 7.58 95.339 7.268C95.1656 6.94733 94.9316 6.70467 94.637 6.54C94.3423 6.36667 94.026 6.28 93.688 6.28C93.35 6.28 93.038 6.36233 92.752 6.527C92.466 6.69167 92.232 6.93433 92.05 7.255C91.8766 7.567 91.79 7.93967 91.79 8.373C91.79 8.80633 91.8766 9.18767 92.05 9.517C92.232 9.83767 92.466 10.0847 92.752 10.258C93.0466 10.4313 93.3586 10.518 93.688 10.518C94.026 10.518 94.3423 10.4357 94.637 10.271C94.9316 10.0977 95.1656 9.855 95.339 9.543C95.5123 9.22233 95.599 8.841 95.599 8.399ZM96.015 2.224C96.015 2.848 95.8286 3.33767 95.456 3.693C95.0833 4.04833 94.5763 4.226 93.935 4.226C93.311 4.226 92.8083 4.04833 92.427 3.693C92.0543 3.329 91.868 2.835 91.868 2.211V1.951H92.83C92.83 2.24567 92.9123 2.471 93.077 2.627C93.2416 2.77433 93.5276 2.848 93.935 2.848C94.3423 2.848 94.6283 2.77433 94.793 2.627C94.9576 2.471 95.04 2.24567 95.04 1.951H96.015V2.224ZM100.133 3.94C99.8118 3.94 99.5432 3.84033 99.3265 3.641C99.1185 3.433 99.0145 3.17733 99.0145 2.874C99.0145 2.57067 99.1185 2.31933 99.3265 2.12C99.5432 1.912 99.8118 1.808 100.133 1.808C100.453 1.808 100.718 1.912 100.926 2.12C101.142 2.31933 101.251 2.57067 101.251 2.874C101.251 3.17733 101.142 3.433 100.926 3.641C100.718 3.84033 100.453 3.94 100.133 3.94ZM101.03 4.798V12H99.2095V4.798H101.03ZM106.819 4.694C107.677 4.694 108.37 4.967 108.899 5.513C109.427 6.05033 109.692 6.80433 109.692 7.775V12H107.872V8.022C107.872 7.45 107.729 7.01233 107.443 6.709C107.157 6.397 106.767 6.241 106.273 6.241C105.77 6.241 105.371 6.397 105.077 6.709C104.791 7.01233 104.648 7.45 104.648 8.022V12H102.828V4.798H104.648V5.695C104.89 5.383 105.198 5.14033 105.571 4.967C105.952 4.785 106.368 4.694 106.819 4.694ZM112.345 3.94C112.025 3.94 111.756 3.84033 111.539 3.641C111.331 3.433 111.227 3.17733 111.227 2.874C111.227 2.57067 111.331 2.31933 111.539 2.12C111.756 1.912 112.025 1.808 112.345 1.808C112.666 1.808 112.93 1.912 113.138 2.12C113.355 2.31933 113.463 2.57067 113.463 2.874C113.463 3.17733 113.355 3.433 113.138 3.641C112.93 3.84033 112.666 3.94 112.345 3.94ZM113.242 4.798V12H111.422V4.798H113.242ZM116.705 10.505H119.916V12H114.638V10.531L117.784 6.293H114.651V4.798H119.877V6.267L116.705 10.505Z" fill="#2DA5DC"/>
<path d="M126.242 2.926V12H124.422V2.926H126.242ZM125.332 2.055C125.09 2.055 124.886 1.97267 124.721 1.808C124.557 1.64333 124.474 1.43967 124.474 1.197C124.474 0.954333 124.557 0.750666 124.721 0.586C124.886 0.412666 125.09 0.325999 125.332 0.325999C125.575 0.325999 125.779 0.412666 125.943 0.586C126.117 0.750666 126.203 0.954333 126.203 1.197C126.203 1.43967 126.117 1.64333 125.943 1.808C125.779 1.97267 125.575 2.055 125.332 2.055ZM131.122 10.557C131.858 10.557 132.339 10.2277 132.565 9.569H134.528C134.346 10.271 134.008 10.843 133.514 11.285C133.028 11.727 132.417 11.9913 131.681 12.078V12.585C132.157 12.585 132.556 12.7063 132.877 12.949C133.206 13.1917 133.371 13.5427 133.371 14.002C133.371 14.47 133.202 14.8297 132.864 15.081C132.534 15.3323 132.127 15.458 131.642 15.458H129.796V14.392H131.343C131.551 14.392 131.707 14.3617 131.811 14.301C131.923 14.2403 131.98 14.132 131.98 13.976C131.98 13.82 131.923 13.7117 131.811 13.651C131.707 13.599 131.551 13.573 131.343 13.573H130.537V12.078C129.947 11.9913 129.427 11.7877 128.977 11.467C128.535 11.1377 128.188 10.713 127.937 10.193C127.694 9.66433 127.573 9.06633 127.573 8.399C127.573 7.65367 127.724 7.00367 128.028 6.449C128.331 5.88567 128.751 5.45233 129.289 5.149C129.826 4.837 130.441 4.681 131.135 4.681C132.027 4.681 132.764 4.90633 133.345 5.357C133.934 5.799 134.328 6.423 134.528 7.229H132.565C132.461 6.917 132.283 6.67433 132.032 6.501C131.789 6.319 131.486 6.228 131.122 6.228C130.602 6.228 130.19 6.41867 129.887 6.8C129.583 7.17267 129.432 7.70567 129.432 8.399C129.432 9.08367 129.583 9.61667 129.887 9.998C130.19 10.3707 130.602 10.557 131.122 10.557ZM136.784 3.94C136.463 3.94 136.195 3.84033 135.978 3.641C135.77 3.433 135.666 3.17733 135.666 2.874C135.666 2.57067 135.77 2.31933 135.978 2.12C136.195 1.912 136.463 1.808 136.784 1.808C137.105 1.808 137.369 1.912 137.577 2.12C137.794 2.31933 137.902 2.57067 137.902 2.874C137.902 3.17733 137.794 3.433 137.577 3.641C137.369 3.84033 137.105 3.94 136.784 3.94ZM137.681 4.798V12H135.861V4.798H137.681ZM143.47 4.694C144.328 4.694 145.021 4.967 145.55 5.513C146.079 6.05033 146.343 6.80433 146.343 7.775V12H144.523V8.022C144.523 7.45 144.38 7.01233 144.094 6.709C143.808 6.397 143.418 6.241 142.924 6.241C142.421 6.241 142.023 6.397 141.728 6.709C141.442 7.01233 141.299 7.45 141.299 8.022V12H139.479V4.798H141.299V5.695C141.542 5.383 141.849 5.14033 142.222 4.967C142.603 4.785 143.019 4.694 143.47 4.694Z" fill="#E1272B"/>
</svg>
